<?xml version="1.0" standalone="no"?>
<!DOCTYPE svg PUBLIC "-//W3C//DTD SVG 20010904//EN"
 "http://www.w3.org/TR/2001/REC-SVG-20010904/DTD/svg10.dtd">
<svg version="1.0" xmlns="http://www.w3.org/2000/svg"
 width="500.000000pt" height="500.000000pt" viewBox="0 0 500.000000 500.000000"
 preserveAspectRatio="xMidYMid meet">

<g transform="translate(0.000000,500.000000) scale(0.100000,-0.100000)"
fill="#000000" stroke="none">
<path d="M2466 3894 c-20 -20 -20 -53 -1 -74 14 -15 13 -31 -14 -151 -137
-617 -141 -632 -161 -646 -15 -11 -20 -26 -20 -59 0 -24 -5 -44 -11 -44 -6 0
-8 -9 -4 -20 5 -15 2 -20 -10 -20 -11 0 -15 -5 -11 -15 3 -9 -3 -19 -14 -25
-11 -6 -17 -16 -14 -25 4 -9 0 -15 -10 -15 -19 0 -21 -16 -3 -23 7 -4 3 -8
-10 -12 -25 -8 -30 -21 -11 -27 18 -6 -33 -88 -103 -165 -45 -49 -59 -72 -59
-95 0 -46 35 -94 86 -119 39 -18 57 -21 119 -16 74 5 182 44 206 73 13 16 39
19 39 4 0 -5 -7 -10 -16 -10 -10 0 -14 -6 -11 -14 3 -8 -1 -17 -9 -20 -10 -4
-13 -13 -9 -26 5 -15 2 -20 -10 -20 -11 0 -15 -5 -11 -16 9 -24 -28 -87 -94
-160 -33 -36 -63 -77 -66 -90 -15 -60 59 -137 142 -150 25 -3 73 -1 107 6 138
27 262 127 361 292 49 82 73 111 162 188 62 54 107 102 110 117 16 61 -32 139
-149 243 -76 67 -103 78 -161 62 l-41 -10 57 51 c32 29 62 64 67 79 21 56 -17
125 -120 223 -81 76 -125 99 -174 89 l-33 -6 -6 54 c-12 108 -26 276 -32 388
-6 100 -4 117 10 129 23 19 21 68 -3 81 -27 14 -47 13 -65 -6z m63 -18 c13
-16 -1 -56 -19 -56 -33 0 -55 42 -33 63 11 12 40 8 52 -7z m-33 -430 l4 -226
-43 -39 c-23 -22 -43 -38 -45 -36 -2 2 8 81 22 177 14 95 30 215 37 266 7 51
14 90 16 88 3 -2 7 -106 9 -230z m-59 42 c-3 -8 -6 -5 -6 6 -1 11 2 17 5 13 3
-3 4 -12 1 -19z m-10 -60 c-3 -8 -6 -5 -6 6 -1 11 2 17 5 13 3 -3 4 -12 1 -19z
m-31 -203 c-23 -154 -36 -199 -52 -183 -3 4 11 86 32 182 21 97 39 174 41 172
2 -2 -7 -79 -21 -171z m136 57 c2 -28 0 -52 -4 -52 -5 0 -7 35 -7 78 2 78 6
69 11 -26z m177 -89 c38 -30 38 -47 1 -147 -22 -56 -95 -146 -120 -146 -5 0
-10 17 -10 38 0 31 6 42 36 66 37 30 84 114 84 153 0 35 -42 57 -96 50 -51 -5
-58 14 -8 24 36 7 68 -4 113 -38z m-169 7 c0 -5 -4 -10 -10 -10 -5 0 -10 5
-10 10 0 6 5 10 10 10 6 0 10 -4 10 -10z m-72 -50 c-20 -16 -45 -49 -57 -72
-11 -24 -21 -36 -21 -28 0 9 7 27 16 40 25 37 87 100 93 95 3 -3 -11 -19 -31
-35z m196 34 c9 -3 16 -15 16 -25 0 -16 -7 -19 -44 -19 -24 0 -51 -3 -60 -6
-12 -5 -16 0 -16 18 0 14 3 28 7 31 8 9 76 9 97 1z m-124 -23 c0 -5 3 -16 6
-24 3 -8 -2 -17 -10 -20 -12 -5 -16 1 -16 23 0 17 5 30 10 30 6 0 10 -4 10 -9z
m-72 -103 c-18 -24 -34 -45 -36 -47 -1 -3 -7 0 -13 6 -14 14 3 53 43 99 l33
38 3 -27 c2 -18 -7 -40 -30 -69z m364 9 c29 -41 17 -70 -50 -119 -67 -49 -112
-95 -157 -162 l-33 -48 -4 68 c-2 54 0 71 12 78 8 5 35 30 60 55 41 42 67 92
96 190 5 16 41 -14 76 -62z m-529 -77 c-3 -12 -8 -19 -11 -16 -5 6 5 36 12 36
2 0 2 -9 -1 -20z m64 3 c-3 -10 -8 -35 -12 -55 -6 -40 -11 -43 -34 -29 -10 6
-12 19 -6 47 9 49 12 54 36 54 15 0 19 -5 16 -17z m66 -11 c21 -19 23 -79 2
-128 -8 -19 -33 -61 -56 -94 l-41 -58 -45 24 c-25 13 -52 24 -59 24 -8 0 -14
7 -14 15 0 21 19 19 76 -10 56 -29 54 -28 54 -15 0 11 -73 50 -95 50 -8 0 -15
5 -15 10 0 16 38 11 81 -11 23 -11 43 -18 46 -15 8 7 -56 44 -89 51 -17 4 -25
11 -22 20 5 11 13 11 50 0 25 -7 52 -19 60 -26 8 -6 17 -9 21 -5 10 10 -27 33
-73 47 -27 8 -40 17 -37 26 6 16 45 8 92 -19 38 -22 56 -16 22 8 -19 14 -21
22 -16 62 11 80 13 82 58 44z m435 -18 c-2 -30 -11 -43 -47 -73 -87 -70 -164
-146 -191 -190 -27 -42 -28 -43 -28 -15 0 34 35 96 51 92 7 -2 12 2 12 7 0 6
-4 9 -9 7 -12 -4 8 22 53 71 41 44 93 79 112 75 7 -2 13 2 14 7 1 10 27 55 33
55 1 0 2 -16 0 -36z m-310 -46 c-2 -31 -8 -44 -20 -46 -15 -3 -18 4 -18 36 0
36 8 49 33 51 5 1 7 -18 5 -41z m-58 -21 c0 -39 -57 -161 -107 -229 -61 -84
-139 -114 -218 -83 -47 18 -53 26 -32 43 7 6 24 34 37 62 16 34 28 49 38 45 7
-3 19 -5 25 -5 7 0 27 -9 45 -20 32 -20 32 -20 16 -45 -9 -14 -14 -28 -11 -31
3 -3 33 30 68 73 65 81 109 162 109 201 0 13 6 22 15 22 10 0 15 -10 15 -33z
m72 -109 c4 -61 2 -79 -16 -112 l-21 -39 -7 49 c-11 84 -9 162 5 167 30 13 35
5 39 -65z m-63 -113 l1 -71 -52 -50 c-70 -67 -106 -91 -174 -114 -71 -25 -137
-25 -189 -1 -76 34 -79 55 -13 119 l34 32 38 -15 c46 -20 101 -21 150 -5 47
15 117 94 158 178 l33 67 7 -35 c4 -19 7 -67 7 -105z m379 121 c15 -8 38 -26
51 -40 29 -31 26 -66 -15 -156 -31 -69 -72 -110 -151 -148 -51 -25 -58 -33
-89 -99 -66 -138 -140 -206 -226 -206 -67 0 -123 37 -88 58 6 4 22 29 35 56
14 27 31 49 37 49 21 0 98 -41 98 -53 0 -6 -7 -19 -17 -29 -9 -10 -11 -18 -5
-18 16 0 131 146 153 195 10 22 19 52 19 66 0 21 9 29 54 48 60 25 130 80 150
120 8 14 19 43 24 64 15 53 -9 77 -76 77 -91 0 -198 -77 -218 -157 -4 -13 -10
-23 -15 -23 -20 0 43 100 86 138 44 39 108 69 148 71 10 1 30 -5 45 -13z m6
-42 c30 -11 18 -34 -18 -34 -73 0 -161 -48 -197 -107 -12 -20 -25 -30 -34 -27
-12 5 -12 11 1 42 19 46 58 88 104 112 34 19 113 26 144 14z m146 -95 c37 -44
41 -53 32 -73 -6 -13 -28 -36 -49 -52 -82 -60 -147 -133 -216 -244 -39 -63
-95 -138 -124 -166 -133 -129 -319 -169 -406 -88 l-27 25 19 27 c10 15 31 38
45 51 24 23 26 23 66 7 49 -20 110 -21 153 -2 48 19 122 108 163 193 32 66 41
76 87 99 95 47 158 126 186 232 7 23 16 42 20 42 5 0 28 -23 51 -51z m-481
-68 c-23 -44 -24 -45 -27 -18 -4 31 14 60 31 50 5 -3 7 -1 4 5 -4 5 -4 18 0
29 7 17 8 17 11 -1 2 -10 -7 -40 -19 -65z m29 -116 c-9 -9 -58 10 -58 22 0 8
12 31 28 51 l27 36 3 -53 c2 -29 2 -55 0 -56z m60 89 c18 -12 22 -25 22 -70 0
-62 -5 -74 -67 -162 l-44 -62 -27 18 c-15 11 -40 23 -56 29 -34 11 -47 33 -19
33 10 0 38 -9 62 -20 52 -24 57 -25 41 -6 -6 8 -31 23 -56 32 -24 9 -44 21
-44 26 0 11 46 0 93 -24 20 -10 37 -14 37 -8 0 11 -72 50 -95 50 -8 0 -15 7
-15 16 0 19 35 13 93 -16 20 -11 37 -15 37 -10 0 12 -73 50 -95 50 -8 0 -15 5
-15 10 0 22 33 21 81 -2 27 -14 52 -22 54 -18 3 5 -2 10 -10 14 -11 4 -15 22
-15 71 0 36 3 65 8 65 4 0 18 -7 30 -16z m449 -16 c1 -12 -6 -28 -15 -35 -9
-8 -11 -12 -4 -8 21 11 14 0 -25 -36 -20 -18 -31 -25 -23 -14 8 10 -25 -20
-74 -67 -49 -48 -93 -85 -97 -82 -5 2 -6 -4 -4 -14 4 -21 -20 -56 -33 -48 -5
3 -9 -1 -9 -9 0 -8 5 -11 10 -8 13 8 4 -6 -46 -79 -33 -49 -44 -57 -64 -53
-21 3 -23 2 -12 -12 11 -13 10 -18 -10 -34 -13 -10 -27 -16 -32 -13 -5 3 -8 1
-7 -4 2 -6 -14 -22 -36 -36 -30 -21 -41 -24 -52 -15 -8 6 -15 9 -15 5 -1 -3
-2 -10 -3 -15 -2 -15 -10 -20 -46 -26 -109 -20 -163 -9 -216 48 -37 38 -37 39
-7 19 17 -12 36 -22 41 -22 6 0 14 -5 18 -12 5 -7 3 -8 -6 -3 -9 5 -11 4 -6
-4 6 -9 11 -9 22 0 11 9 18 8 31 -2 15 -12 16 -12 8 1 -6 12 -5 13 5 3 9 -9
19 -9 33 -2 11 6 17 7 14 2 -4 -5 0 -10 8 -10 8 0 11 5 8 10 -4 6 5 8 21 5 14
-3 29 -2 31 2 9 15 80 47 98 44 9 -1 15 1 12 5 -2 5 7 19 20 31 14 13 25 20
25 16 0 -11 64 55 85 86 9 15 20 26 24 23 4 -2 8 1 8 8 0 13 57 111 81 139 8
10 18 15 22 13 5 -3 6 4 3 15 -4 15 11 36 62 86 58 57 69 64 83 52 9 -7 14 -8
9 -3 -5 6 48 75 58 75 0 0 1 -10 2 -22z m-591 -15 c-6 -31 -17 -43 -42 -47
-11 -2 -19 -9 -19 -16 0 -25 -154 -105 -186 -97 -10 3 -22 1 -25 -4 -3 -5 -14
-9 -25 -9 -14 0 -18 4 -13 13 6 8 3 8 -9 -1 -9 -8 -22 -10 -29 -6 -6 4 -22 8
-35 9 -13 0 -40 18 -61 39 -33 35 -30 41 7 12 19 -15 57 -21 126 -20 77 1 115
6 109 15 -4 8 72 43 96 44 8 1 14 6 12 13 -1 7 9 17 23 24 14 6 32 22 40 35
21 31 37 29 31 -4z"/>
<path d="M2766 2888 c3 -5 10 -6 15 -3 13 9 11 12 -6 12 -8 0 -12 -4 -9 -9z"/>
<path d="M2716 2838 c3 -5 10 -6 15 -3 13 9 11 12 -6 12 -8 0 -12 -4 -9 -9z"/>
<path d="M2446 2634 c-18 -29 -31 -41 -36 -34 -5 8 -20 3 -50 -19 -24 -17 -49
-31 -57 -31 -7 0 -13 -5 -13 -11 0 -8 14 -10 43 -6 25 4 48 2 54 -4 24 -24
103 76 103 131 0 31 -12 24 -44 -26z"/>
<path d="M2672 2209 c-17 -28 -28 -39 -39 -35 -9 4 -24 0 -33 -9 -9 -8 -34
-24 -56 -34 -33 -16 -36 -21 -21 -27 10 -4 34 -2 53 4 19 6 34 6 34 1 0 -19
27 -8 57 24 40 42 62 117 34 117 -3 0 -16 -18 -29 -41z"/>
<path d="M2966 2452 c-3 -5 1 -9 9 -9 8 0 12 4 9 9 -3 4 -7 8 -9 8 -2 0 -6 -4
-9 -8z"/>
<path d="M2345 2431 c-3 -5 -2 -12 3 -15 5 -3 9 1 9 9 0 17 -3 19 -12 6z"/>
<path d="M2242 1838 c-21 -21 -13 -57 24 -98 20 -22 34 -47 32 -57 -4 -21 -45
-30 -61 -14 -13 13 -27 14 -27 3 0 -14 51 -33 71 -27 11 4 24 15 30 26 9 17 5
28 -18 60 -15 22 -32 46 -37 53 -5 7 -6 21 -2 31 5 14 14 16 41 12 35 -6 48 6
19 17 -25 10 -59 7 -72 -6z"/>
<path d="M2371 1767 c-38 -93 -52 -158 -19 -84 17 36 27 47 45 47 19 0 23 -5
23 -32 0 -18 5 -40 11 -48 7 -11 9 5 5 55 -3 39 -6 87 -6 108 0 60 -22 43 -59
-46z m48 -9 c1 -5 -6 -8 -14 -8 -16 0 -19 9 -8 36 6 16 7 16 14 -2 4 -10 8
-22 8 -26z"/>
<path d="M2480 1750 c-15 -116 -8 -144 11 -41 7 39 15 71 19 71 3 0 12 -17 20
-37 7 -21 20 -54 28 -73 l15 -35 13 50 c20 74 29 165 16 165 -5 0 -13 -21 -16
-47 -18 -124 -16 -122 -45 -37 -14 43 -31 79 -37 81 -8 3 -16 -31 -24 -97z"/>
<path d="M2673 1823 c-63 -145 -93 -246 -41 -139 17 35 28 46 45 46 20 0 23
-5 23 -39 0 -22 5 -43 10 -46 9 -6 6 90 -5 160 -2 11 -4 26 -4 33 -2 21 -16
13 -28 -15z m8 -76 c-18 -18 -23 -1 -9 29 13 28 13 28 16 5 2 -13 -1 -28 -7
-34z"/>
<path d="M2760 1758 c-7 -51 -15 -98 -17 -105 -3 -7 -1 -13 5 -13 5 0 15 35
21 78 7 42 14 89 17 105 3 15 1 27 -4 27 -5 0 -15 -42 -22 -92z"/>
<path d="M2272 1480 c0 -14 2 -19 5 -12 2 6 2 18 0 25 -3 6 -5 1 -5 -13z"/>
<path d="M2675 1490 c-3 -6 1 -7 9 -4 18 7 21 14 7 14 -6 0 -13 -4 -16 -10z"/>
<path d="M2736 1491 c-4 -5 3 -7 14 -4 23 6 26 13 6 13 -8 0 -17 -4 -20 -9z"/>
<path d="M2806 1491 c-4 -5 3 -7 14 -4 23 6 26 13 6 13 -8 0 -17 -4 -20 -9z"/>
<path d="M2876 1491 c-4 -5 3 -7 14 -4 23 6 26 13 6 13 -8 0 -17 -4 -20 -9z"/>
<path d="M2461 1470 c-1 -14 -4 -36 -7 -50 l-6 -25 17 24 c14 18 19 20 27 10
8 -11 9 -11 6 -1 -2 8 -8 12 -13 10 -5 -2 -13 11 -16 27 -6 27 -7 28 -8 5z"/>
<path d="M2368 1462 c-4 -12 -2 -24 2 -27 13 -8 18 8 10 29 -6 19 -7 19 -12
-2z"/>
<path d="M2090 1441 c0 -6 5 -13 11 -17 8 -4 7 -9 -2 -15 -10 -6 -10 -9 -2 -9
17 0 25 17 12 26 -8 4 -7 9 2 15 11 7 10 9 -3 9 -10 0 -18 -4 -18 -9z"/>
<path d="M2140 1435 c-13 -15 -6 -35 13 -35 8 0 8 3 -1 9 -11 7 -11 9 2 14 17
7 22 27 7 27 -5 0 -14 -7 -21 -15z"/>
<path d="M2215 1440 c-4 -6 1 -7 12 -3 16 6 16 5 4 -10 -7 -9 -18 -14 -24 -10
-6 3 -7 1 -3 -6 6 -8 12 -9 20 -2 7 6 16 8 19 4 4 -3 7 3 7 15 0 22 -24 30
-35 12z"/>
<path d="M2273 1443 c-7 -2 -13 -14 -12 -26 0 -12 3 -16 6 -9 3 8 9 10 16 3 9
-6 12 -2 13 15 2 24 -1 26 -23 17z"/>
<path d="M2407 1443 c-4 -3 -7 -11 -7 -17 0 -6 4 -4 10 4 5 8 12 12 15 8 3 -3
-1 -13 -10 -21 -14 -14 -13 -16 5 -14 14 1 20 8 20 24 0 22 -19 31 -33 16z"/>
<path d="M2511 1428 c0 -16 1 -28 3 -28 19 0 36 16 36 34 -1 20 -1 20 -14 -4
l-14 -24 -5 24 c-4 24 -4 24 -6 -2z"/>
<path d="M2577 1439 c-9 -6 -17 -18 -17 -27 0 -12 4 -11 17 7 16 23 17 23 24
5 6 -16 8 -16 8 -2 1 22 -11 29 -32 17z"/>
<path d="M2670 1431 c-14 -28 -13 -31 13 -30 16 1 18 2 5 6 -14 4 -16 8 -8 24
6 10 8 19 6 19 -3 0 -10 -9 -16 -19z"/>
<path d="M2755 1430 c-4 -13 -12 -19 -21 -16 -8 3 -14 1 -14 -4 0 -18 29 -10
40 11 7 11 9 23 7 26 -3 2 -8 -5 -12 -17z"/>
<path d="M2825 1430 c-4 -13 -12 -19 -21 -16 -8 3 -14 1 -14 -4 0 -18 29 -10
40 11 7 11 9 23 7 26 -3 2 -8 -5 -12 -17z"/>
<path d="M2895 1430 c-4 -13 -12 -19 -21 -16 -8 3 -14 1 -14 -4 0 -18 29 -10
40 11 7 11 9 23 7 26 -3 2 -8 -5 -12 -17z"/>
<path d="M2181 1404 c0 -11 3 -14 6 -6 3 7 2 16 -1 19 -3 4 -6 -2 -5 -13z"/>
<path d="M2170 1372 c0 -6 -8 -13 -17 -15 -16 -4 -16 -5 -1 -6 18 -1 34 16 24
26 -3 4 -6 1 -6 -5z"/>
</g>
</svg>
